<svg width="1920" height="1080" viewBox="0 0 1920 1080" xmlns="http://www.w3.org/2000/svg"><rect width="1920" height="1080" fill="#ffffff"/><path d="M 0,1080 C 0,1080 0,180 0,180 C 137.84102564102562,148.36666666666667 275.68205128205125,116.73333333333333 364,116 C 452.31794871794875,115.26666666666667 491.1128205128207,145.43333333333334 584,159 C 676.8871794871793,172.56666666666666 823.8666666666666,169.5333333333333 951,167 C 1078.1333333333334,164.4666666666667 1185.4205128205128,162.43333333333334 1284,163 C 1382.5794871794872,163.56666666666666 1472.451282051282,166.73333333333332 1577,170 C 1681.548717948718,173.26666666666668 1800.774358974359,176.63333333333333 1920,180 C 1920,180 1920,1080 1920,1080 Z" fill="#333399" opacity="0.09999999999999999"/><path d="M 0,1080 C 0,1080 0,360 0,360 C 102.09487179487178,372.12307692307695 204.18974358974356,384.24615384615385 319,370 C 433.81025641025644,355.75384615384615 561.3358974358974,315.1384615384615 657,318 C 752.6641025641026,320.8615384615385 816.4666666666667,367.20000000000005 923,367 C 1029.5333333333333,366.79999999999995 1178.797435897436,320.0615384615385 1310,310 C 1441.202564102564,299.9384615384615 1554.3435897435897,326.5538461538461 1653,341 C 1751.6564102564103,355.4461538461539 1835.8282051282051,357.723076923077 1920,360 C 1920,360 1920,1080 1920,1080 Z" fill="#333399" opacity="0.19999999999999998"/><path d="M 0,1080 C 0,1080 0,540 0,540 C 111.08205128205125,500.2025641025641 222.1641025641025,460.40512820512816 317,474 C 411.8358974358975,487.59487179487184 490.4256410256411,554.5820512820513 603,579 C 715.5743589743589,603.4179487179487 862.1333333333332,585.2666666666667 980,563 C 1097.8666666666668,540.7333333333333 1187.0410256410255,514.351282051282 1276,526 C 1364.9589743589745,537.648717948718 1453.7025641025643,587.3282051282051 1561,596 C 1668.2974358974357,604.6717948717949 1794.1487179487178,572.3358974358974 1920,540 C 1920,540 1920,1080 1920,1080 Z" fill="#333399" opacity="0.3"/><path d="M 0,1080 C 0,1080 0,720 0,720 C 128.2615384615385,703.4615384615385 256.523076923077,686.9230769230769 353,679 C 449.476923076923,671.0769230769231 514.1692307692307,671.7692307692308 612,691 C 709.8307692307693,710.2307692307692 840.8000000000002,748 953,747 C 1065.1999999999998,746 1158.6307692307691,706.2307692307692 1265,690 C 1371.3692307692309,673.7692307692308 1490.676923076923,681.0769230769231 1602,690 C 1713.323076923077,698.9230769230769 1816.6615384615384,709.4615384615385 1920,720 C 1920,720 1920,1080 1920,1080 Z" fill="#333399" opacity="0.39999999999999997"/><path d="M 0,1080 C 0,1080 0,900 0,900 C 134.80769230769232,917.9282051282051 269.61538461538464,935.8564102564103 373,929 C 476.38461538461536,922.1435897435897 548.3461538461539,890.5025641025642 655,899 C 761.6538461538461,907.4974358974358 903,956.1333333333333 996,957 C 1089,957.8666666666667 1133.6538461538464,910.9641025641026 1220,900 C 1306.3461538461536,889.0358974358974 1434.3846153846155,914.0102564102564 1558,920 C 1681.6153846153845,925.9897435897436 1800.8076923076924,912.9948717948719 1920,900 C 1920,900 1920,1080 1920,1080 Z" fill="#333399" opacity="0.49999999999999994"/></svg>